<svg aria-hidden="true" style="position: absolute; width: 0; height: 0; overflow: hidden;" version="1.1" xmlns="http://www.w3.org/2000/svg" xmlns:xlink="http://www.w3.org/1999/xlink">
<defs>
<symbol id="icon-antenna" viewBox="0 0 32 32">
<path fill="#212121" style="fill: var(--color1, #212121)" d="M30.629 21.943l-8.229-8.229 0.914-4.571h0.914c1.179-0.1 2.098-1.082 2.098-2.278 0-1.262-1.023-2.286-2.286-2.286s-2.286 1.023-2.286 2.286c0 0.328 0.069 0.639 0.193 0.921l-0.006-0.015-5.029 0.457-7.771-8.229h-0.914l-1.371 1.829v0.457l0.457 0.914c-1.11 2.049-1.762 4.486-1.762 7.076 0 4.209 1.723 8.015 4.503 10.751l0.002 0.002v6.857h-6.4c-1.371 0-2.743 0.914-2.743 2.743v0.914l0.914 0.457h24.229l0.457-0.457v-0.914c0-1.829-0.914-2.743-2.286-2.743h-6.4v-2.743c0.748 0.132 1.61 0.207 2.49 0.207 2.787 0 5.398-0.756 7.638-2.074l-0.071 0.038 0.457 0.914 0.457 0.457 1.829-1.829v-0.914zM23.314 6.4c0.133-0.068 0.291-0.108 0.457-0.108 0.565 0 1.022 0.458 1.022 1.022 0 0.398-0.227 0.743-0.559 0.912l-0.006 0.003c-0.133 0.068-0.291 0.108-0.457 0.108-0.565 0-1.022-0.458-1.022-1.022 0-0.398 0.227-0.743 0.559-0.912l0.006-0.003zM21.943 9.6l-0.457 3.2-1.371-1.371 1.829-1.829zM21.486 8.686l-1.829 2.286-1.829-1.829 3.657-0.457zM24.229 28.8c0.457 0 1.371 0.914 1.371 1.829v0.457h-23.314v-0.457c0-0.914 0.457-1.829 1.371-1.829h20.571zM16.457 26.514v1.371h-5.029v-1.371h5.029zM11.429 25.6v-4.114c0-1.371 0.914-2.286 2.286-2.286 1.829 0 2.743 0.914 2.743 2.286v4.114h-5.029zM17.829 23.771v-2.286c0-1.829-1.829-3.2-4.114-3.2-1.371 0-2.286 0.457-3.2 1.829-4.114-4.571-5.029-10.971-2.286-16l18.743 18.743c-2.743 1.371-6.4 1.829-9.143 0.914zM28.8 23.314l-0.457-0.914-20.571-20.571 0.914-0.457 21.029 21.029-0.914 0.914z"></path>
<path fill="#2196f3" style="fill: var(--color2, #2196f3)" d="M13.714 20.114c-0.567 0.318-0.943 0.915-0.943 1.6s0.377 1.282 0.934 1.595l0.009 0.005c0.884 0 1.6-0.716 1.6-1.6s-0.716-1.6-1.6-1.6v0zM14.171 22.4c-0.067 0.034-0.145 0.054-0.229 0.054-0.282 0-0.511-0.229-0.511-0.511 0-0.199 0.114-0.371 0.28-0.456l0.003-0.001c0.067-0.034 0.145-0.054 0.229-0.054 0.282 0 0.511 0.229 0.511 0.511 0 0.199-0.114 0.371-0.28 0.456l-0.003 0.001z"></path>
</symbol>
<symbol id="icon-astronaut" viewBox="0 0 32 32">
<path fill="#2196f3" style="fill: var(--color2, #2196f3)" d="M31.974 4.524c-0.063-0.193-0.229-0.333-0.43-0.363l-1.91-0.278-0.855-1.731c-0.179-0.365-0.777-0.365-0.956 0l-0.855 1.731-1.91 0.278c-0.201 0.029-0.367 0.17-0.431 0.363-0.062 0.193-0.011 0.405 0.135 0.547l1.383 1.348-0.326 1.903c-0.034 0.2 0.048 0.402 0.212 0.522 0.166 0.121 0.382 0.135 0.562 0.040l1.709-0.899 1.709 0.899c0.078 0.041 0.164 0.061 0.249 0.061 0.11 0 0.221-0.034 0.314-0.102 0.164-0.119 0.246-0.322 0.212-0.522l-0.326-1.903 1.383-1.348c0.145-0.142 0.197-0.354 0.135-0.547zM29.511 5.851c-0.125 0.122-0.183 0.299-0.153 0.472l0.191 1.114-1-0.526c-0.078-0.041-0.163-0.061-0.249-0.061s-0.17 0.020-0.249 0.061l-1.001 0.526 0.191-1.114c0.030-0.173-0.028-0.349-0.153-0.472l-0.81-0.789 1.119-0.163c0.174-0.025 0.324-0.134 0.402-0.292l0.5-1.013 0.5 1.013c0.078 0.157 0.228 0.267 0.402 0.292l1.119 0.163-0.809 0.789z"></path>
<path fill="#2196f3" style="fill: var(--color2, #2196f3)" d="M26.134 20.522h-1.067v1.067h1.067v-1.067z"></path>
<path fill="#2196f3" style="fill: var(--color2, #2196f3)" d="M26.134 22.656h-1.067v1.067h1.067v-1.067z"></path>
<path fill="#2196f3" style="fill: var(--color2, #2196f3)" d="M27.2 21.589h-1.067v1.067h1.067v-1.067z"></path>
<path fill="#2196f3" style="fill: var(--color2, #2196f3)" d="M25.067 21.589h-1.067v1.067h1.067v-1.067z"></path>
<path fill="#2196f3" style="fill: var(--color2, #2196f3)" d="M22.4 26.389h-1.067v1.067h1.067v-1.067z"></path>
<path fill="#2196f3" style="fill: var(--color2, #2196f3)" d="M22.4 28.522h-1.067v1.067h1.067v-1.067z"></path>
<path fill="#2196f3" style="fill: var(--color2, #2196f3)" d="M23.467 27.456h-1.067v1.067h1.067v-1.067z"></path>
<path fill="#2196f3" style="fill: var(--color2, #2196f3)" d="M21.333 27.456h-1.067v1.067h1.067v-1.067z"></path>
<path fill="#2196f3" style="fill: var(--color2, #2196f3)" d="M16 24.256h-1.067v1.067h1.067v-1.067z"></path>
<path fill="#2196f3" style="fill: var(--color2, #2196f3)" d="M16 26.389h-1.067v1.067h1.067v-1.067z"></path>
<path fill="#2196f3" style="fill: var(--color2, #2196f3)" d="M17.067 25.322h-1.067v1.067h1.067v-1.067z"></path>
<path fill="#2196f3" style="fill: var(--color2, #2196f3)" d="M14.933 25.322h-1.067v1.067h1.067v-1.067z"></path>
<path fill="#2196f3" style="fill: var(--color2, #2196f3)" d="M5.867 6.122h-1.067v1.067h1.067v-1.067z"></path>
<path fill="#2196f3" style="fill: var(--color2, #2196f3)" d="M5.867 8.255h-1.067v1.067h1.067v-1.067z"></path>
<path fill="#2196f3" style="fill: var(--color2, #2196f3)" d="M6.933 7.189h-1.067v1.067h1.067v-1.067z"></path>
<path fill="#2196f3" style="fill: var(--color2, #2196f3)" d="M4.8 7.189h-1.067v1.067h1.067v-1.067z"></path>
<path fill="#212121" style="fill: var(--color1, #212121)" d="M24.715 14.159c-0.287-0.388-0.709-0.637-1.188-0.705-0.481-0.068-0.956 0.058-1.34 0.352l-1.252 0.96-1.898 1.417-1.358-0.541c2.421-1.086 4.114-3.508 4.114-6.32 0-3.823-3.123-6.933-6.961-6.933s-6.961 3.11-6.961 6.933c0 1.386 0.414 2.674 1.12 3.758l-2.764-0.024c-0.002 0-0.003 0-0.005 0-0.009 0-0.015 0.004-0.023 0.005-0.053 0.002-0.105 0.013-0.155 0.031-0.013 0.005-0.026 0.008-0.038 0.013-0.006 0.003-0.013 0.003-0.019 0.006l-3.233 1.596c-0.001 0-0.001 0-0.001 0.001l-1.893 0.911c-0.021 0.009-0.042 0.021-0.063 0.035-0.755 0.502-1.012 1.489-0.598 2.295 0.22 0.429 0.595 0.745 1.056 0.889 0.178 0.055 0.359 0.083 0.539 0.083 0.29 0 0.577-0.071 0.839-0.211l1.388-0.738 2.264-1.169 1.357-0.008-5.442 5.416c-0.001 0.001-0.001 0.001-0.002 0.001l-1.339 1.333c-0.316 0.315-0.49 0.732-0.49 1.178s0.174 0.863 0.49 1.179c0.325 0.323 0.752 0.485 1.179 0.485s0.854-0.162 1.18-0.485l1.314-1.309 1.741-1.3 0.901 0.897-1.762 1.754c-0 0.001-0.001 0.001-0.002 0.001l-1.339 1.333c-0.316 0.315-0.49 0.732-0.49 1.178s0.174 0.863 0.49 1.179c0.325 0.323 0.753 0.485 1.18 0.485s0.855-0.162 1.18-0.485l3.482-3.467c0.001-0.001 0.001-0.001 0.001-0.002l1.010-1-0.004-0.004c0.006-0.006 0.015-0.009 0.022-0.015l5.166-5.658 3.471 0.494c0.025 0.004 0.050 0.005 0.075 0.005 0.065 0 0.127-0.015 0.187-0.038 0.018-0.006 0.033-0.015 0.050-0.023 0.019-0.010 0.039-0.015 0.058-0.027l3.213-2.133c0.012-0.008 0.018-0.021 0.029-0.029 0.013-0.010 0.029-0.014 0.041-0.026l1.271-1.191c0.662-0.62 0.753-1.635 0.212-2.362zM2.13 17.77c-0.173 0.093-0.37 0.111-0.558 0.052-0.187-0.058-0.338-0.186-0.427-0.358-0.161-0.314-0.068-0.695 0.214-0.902l1.314-0.632 0.449 1.312-0.992 0.528zM5.628 15.942l-1.548 0.8-0.439-1.283 2.027-1.001-0.040 1.484zM20.727 9.322c0 0.918-0.219 1.785-0.599 2.559l-4.181-1.899c-0.044-0.573-0.341-1.075-0.788-1.388l1.464-4.86c2.378 0.756 4.105 2.974 4.105 5.588zM8.938 9.322c0-3.235 2.644-5.867 5.894-5.867 0.253 0 0.5 0.021 0.745 0.052l-1.432 4.754c-0.019-0.001-0.037-0.006-0.057-0.006-1.033 0-1.873 0.837-1.873 1.867s0.84 1.867 1.873 1.867c0.694 0 1.294-0.383 1.618-0.945l3.862 1.755c-1.075 1.446-2.795 2.39-4.737 2.39-3.25 0-5.894-2.632-5.894-5.867zM14.894 10.122c0 0.441-0.362 0.8-0.806 0.8s-0.806-0.359-0.806-0.8c0-0.441 0.362-0.8 0.806-0.8s0.806 0.359 0.806 0.8zM2.465 25.146c-0.236 0.234-0.619 0.234-0.854 0.001-0.114-0.114-0.176-0.263-0.176-0.423s0.062-0.309 0.176-0.421l0.962-0.958 0.851 0.848-0.959 0.955zM5.679 28.88c-0.236 0.234-0.619 0.235-0.855 0.001-0.114-0.114-0.176-0.263-0.176-0.423s0.062-0.309 0.176-0.421l0.963-0.959 0.852 0.848-0.96 0.955zM9.16 25.411c-0.001 0-0.001 0-0.002 0.001l-1.765 1.76-0.852-0.848 1.763-1.755c0 0 0 0 0-0s0.001-0.001 0.002-0.001c0.040-0.040 0.065-0.088 0.090-0.135 0.007-0.014 0.020-0.026 0.026-0.040 0.017-0.041 0.019-0.085 0.026-0.129 0.003-0.025 0.014-0.047 0.014-0.073 0-0.036-0.013-0.070-0.020-0.106-0.006-0.032-0.006-0.065-0.019-0.095-0.020-0.050-0.055-0.094-0.091-0.138-0.010-0.012-0.014-0.027-0.025-0.038 0 0 0 0-0.001 0s-0.001-0.002-0.001-0.002l-1.607-1.6c-0.017-0.017-0.039-0.024-0.058-0.038-0.028-0.022-0.055-0.042-0.087-0.058-0.030-0.015-0.061-0.024-0.093-0.033-0.034-0.010-0.067-0.017-0.103-0.020-0.033-0.002-0.063 0.001-0.095 0.005-0.036 0.004-0.069 0.009-0.104 0.020-0.034 0.011-0.063 0.027-0.094 0.045-0.020 0.011-0.042 0.015-0.061 0.029l-1.773 1.324-0.901-0.897 2.399-2.386 4.361 4.289-0.928 0.919zM15.979 18.394c-0.015-0.002-0.030 0.004-0.045 0.003-0.039-0.002-0.076 0.001-0.115 0.007-0.030 0.005-0.059 0.011-0.088 0.021-0.034 0.012-0.065 0.028-0.097 0.047-0.030 0.018-0.057 0.037-0.083 0.061-0.013 0.011-0.028 0.017-0.040 0.029l-4.698 5.146-4.328-4.257 2.833-2.818c0.209-0.208 0.21-0.546 0.002-0.755-0.105-0.105-0.243-0.157-0.381-0.156v-0.001l-2.219 0.013 0.028-1.607 3.104 0.027c1.265 1.294 3.029 2.101 4.981 2.101 0.437 0 0.864-0.045 1.279-0.123 0.040 0.032 0.079 0.065 0.13 0.085l2.41 0.96 0.152 0.758 0.178 0.885-3.003-0.427zM20.020 18.572l-0.313-1.558 1.446-1.080 0.947 1.257-2.080 1.381zM23.774 15.741l-0.838 0.785-0.931-1.236 0.831-0.637c0.155-0.119 0.351-0.168 0.543-0.143 0.193 0.027 0.364 0.128 0.48 0.284 0.217 0.292 0.18 0.699-0.085 0.947z"></path>
<path fill="#212121" style="fill: var(--color1, #212121)" d="M13.602 18.544l-2.143-2.133c-0.207-0.207-0.545-0.207-0.753 0l-2.142 2.133c-0.1 0.101-0.157 0.236-0.157 0.378s0.056 0.278 0.157 0.378l2.142 2.133c0.104 0.103 0.241 0.155 0.377 0.155s0.273-0.052 0.376-0.155l2.143-2.133c0.1-0.1 0.157-0.236 0.157-0.378s-0.057-0.278-0.157-0.378zM11.083 20.303l-1.387-1.381 1.387-1.381 1.387 1.381-1.387 1.381z"></path>
<path fill="#212121" style="fill: var(--color1, #212121)" d="M17.164 5.071l-0.258 1.036c0.071 0.018 1.738 0.452 1.738 2.149h1.067c-0-2.017-1.666-2.965-2.547-3.185z"></path>
<path fill="#212121" style="fill: var(--color1, #212121)" d="M19.711 9.322h-1.067v1.067h1.067v-1.067z"></path>
</symbol>
<symbol id="icon-clock" viewBox="0 0 32 32">
<path fill="#212121" style="fill: var(--color1, #212121)" d="M31.314 15.314c0-0.005 0-0.010 0-0.016 0-8.458-6.856-15.314-15.314-15.314s-15.314 6.856-15.314 15.314c0 6.859 4.51 12.665 10.726 14.615l0.108 0.029c0.137 0 0.229-0.046 0.366-0.137 0.137-0.046 0.229-0.183 0.274-0.366l3.84-12.206c1.058-0.003 1.915-0.861 1.915-1.92 0-1.060-0.86-1.92-1.92-1.92-0.297 0-0.578 0.067-0.829 0.188l0.012-0.005-5.12-5.12c-0.117-0.117-0.279-0.189-0.457-0.189-0.357 0-0.646 0.289-0.646 0.646 0 0.179 0.072 0.34 0.189 0.457l5.12 5.12c-0.114 0.235-0.18 0.511-0.18 0.802 0 0.602 0.284 1.137 0.725 1.48l0.004 0.003-3.657 11.703c-5.431-2.020-9.229-7.159-9.229-13.186 0-7.751 6.283-14.034 14.034-14.034s14.034 6.283 14.034 14.034c0 5.684-3.379 10.578-8.237 12.785l-0.088 0.036-0.366-1.874c-0.057-0.3-0.317-0.524-0.63-0.524-0.162 0-0.31 0.060-0.423 0.159l0.001-0.001-3.84 3.429c-0.137 0.118-0.223 0.292-0.223 0.485 0 0.286 0.188 0.529 0.447 0.61l0.005 0.001 4.891 1.6c0.058 0.019 0.125 0.030 0.195 0.030 0.353 0 0.64-0.287 0.64-0.64 0-0.043-0.004-0.085-0.012-0.126l0.001 0.004-0.366-1.829c5.527-2.379 9.326-7.778 9.326-14.065 0-0.005 0-0.011 0-0.016v0.001zM16 14.629c0.353 0 0.64 0.287 0.64 0.64s-0.287 0.64-0.64 0.64v0c-0.353 0-0.64-0.287-0.64-0.64s0.287-0.64 0.64-0.64v0zM18.103 29.486l2.194-1.966 0.594 2.834-2.789-0.914z"></path>
<path fill="#2196f3" style="fill: var(--color2, #2196f3)" d="M15.36 3.2v1.28c0 0.353 0.287 0.64 0.64 0.64s0.64-0.287 0.64-0.64v-1.28c0-0.353-0.287-0.64-0.64-0.64s-0.64 0.287-0.64 0.64v0zM3.886 14.629c-0.366 0-0.663 0.297-0.663 0.663s0.297 0.663 0.663 0.663h1.28c0.353 0 0.64-0.287 0.64-0.64s-0.287-0.64-0.64-0.64h-1.28zM28.114 15.954c0.353 0 0.64-0.287 0.64-0.64s-0.287-0.64-0.64-0.64h-1.28c-0.353 0-0.64 0.287-0.64 0.64s0.287 0.64 0.64 0.64h1.28z"></path>
</symbol>
<symbol id="icon-diagram" viewBox="0 0 32 32">
<path fill="#2196f3" style="fill: var(--color2, #2196f3)" d="M14.903 14.949h1.097v4.8h-1.097v-4.8zM19.2 17.097h1.051v2.651h-1.051v-2.651zM10.651 18.697h1.097v1.051h-1.097v-1.006zM7.451 18.149h1.097v1.6h-1.097v-1.6z"></path>
<path fill="#212121" style="fill: var(--color1, #212121)" d="M1.6 28.297h25.6c0.869 0 1.6-0.731 1.6-1.6v-2.149c0-0.914-0.731-1.6-1.6-1.6h-0.549v-13.257l3.017-2.88c0.213 0.112 0.465 0.178 0.733 0.178 0.884 0 1.6-0.716 1.6-1.6s-0.716-1.6-1.6-1.6c-0.884 0-1.6 0.716-1.6 1.6 0 0.234 0.050 0.455 0.14 0.655l-0.004-0.010-2.286 2.149v-1.234c0-0.869-0.731-1.6-1.6-1.6h-21.303c-0.914 0-1.6 0.731-1.6 1.6v16h-0.549c-0.914 0-1.6 0.731-1.6 1.6v2.149c0 0.914 0.731 1.6 1.6 1.6zM30.4 4.846c0.047-0.014 0.101-0.023 0.157-0.023 0.303 0 0.549 0.246 0.549 0.549s-0.246 0.549-0.549 0.549c-0.056 0-0.11-0.008-0.161-0.024l0.004 0.001c-0.229-0.070-0.392-0.279-0.392-0.526s0.163-0.456 0.388-0.525l0.004-0.001zM3.2 6.949c0-0.274 0.229-0.503 0.549-0.503h21.303c0.274 0 0.549 0.229 0.549 0.503v2.286l-1.097 1.006v-2.194c0-0.32-0.229-0.549-0.503-0.549h-19.2c-0.274 0-0.549 0.229-0.549 0.549v13.303c0 0.32 0.274 0.549 0.549 0.549h19.2c0.274 0 0.503-0.229 0.503-0.549v-9.646l1.097-1.006v12.251h-22.4v-16zM8 13.897c-0.007-0-0.015-0-0.022-0-0.884 0-1.6 0.716-1.6 1.6s0.716 1.6 1.6 1.6c0.436 0 0.831-0.174 1.12-0.457l-0 0 1.829 0.914c0.229 0.137 0.503 0.091 0.686-0.091l3.931-4.434 3.84 2.88c0.229 0.183 0.503 0.137 0.686 0l3.383-3.2v8.137h-18.103v-12.297h18.103v2.697l-3.749 3.566-3.931-2.926c-0.229-0.183-0.549-0.137-0.731 0.046l-3.977 4.526-1.463-0.777v-0.137c0-0.914-0.686-1.6-1.554-1.6zM8.549 15.497c0 0.303-0.246 0.549-0.549 0.549s-0.549-0.246-0.549-0.549v0c0-0.303 0.246-0.549 0.549-0.549s0.549 0.246 0.549 0.549v0zM11.749 24.046h5.303v0.503c0 0.32-0.229 0.549-0.549 0.549h-4.251c-0.274 0-0.503-0.229-0.503-0.549v-0.503zM1.051 24.549c0-0.274 0.274-0.503 0.549-0.503h9.051v0.503c0 0.914 0.731 1.6 1.6 1.6h4.251c0.914 0 1.6-0.686 1.6-1.6v-0.503h9.097c0.274 0 0.503 0.229 0.503 0.503v2.149c0 0.274-0.229 0.549-0.503 0.549h-25.6c-0.274 0-0.549-0.274-0.549-0.549v-2.149z"></path>
</symbol>
<symbol id="icon-envelope" viewBox="0 0 43 32">
<path d="M38.667 0h-34.667c-2.133 0-4 1.867-4 4v24c0 2.133 1.867 4 4 4h34.667c2.133 0 4-1.867 4-4v-24c0-2.133-1.867-4-4-4zM38.667 2.667h0.533l-17.867 15.467-17.867-15.467h35.2zM38.667 29.333h-34.667c-0.736 0-1.333-0.597-1.333-1.333v0-22.4l17.867 15.467c0.22 0.166 0.498 0.267 0.8 0.267s0.58-0.1 0.803-0.269l-0.003 0.002 17.867-15.733v22.4c0 0.8-0.533 1.333-1.333 1.333z"></path>
</symbol>
<symbol id="icon-facebook" viewBox="0 0 32 32">
<path d="M21.28 5.28h3.040v-5.12l-4.32-0.16c-4.16 0-7.040 2.72-7.040 7.52v4.48h-4.96v5.76h4.8v14.24h5.6v-14.4h4.48l0.8-5.6h-5.28v-3.84c0-1.6 0.48-2.88 2.72-2.88z"></path>
</symbol>
<symbol id="icon-group-2" viewBox="0 0 25 32">
<path d="M10.462 1.846h0.492c0.738 0.062 1.477 0.123 2.215 0.308v-1.723l0.122 0.024c-1.061-0.248-2.158-0.402-3.322-0.455h-0.31c-3.403 0.007-6.587 0.943-9.229 2.523v17.477l-0.105 0.052c2.563-1.394 5.466-2.242 8.597-2.391h0.677v-1.846l-0.031 0.001c-2.409 0.063-4.728 0.486-6.739 1.169l-0.615 0.246v-13.723l0.308-0.123c2.031-0.923 4.246-1.538 6.523-1.538l-0.021 0c0.14-0.004 0.28-0.006 0.421-0.006s0.281 0.002 0.4 0.005h0.677zM13.6 3.631h1.231c3.41-0.009 6.611-0.898 9.391-2.45l-0.098 0.050v17.231c-2.622 1.533-5.773 2.438-9.136 2.438-1.253 0-2.477-0.126-3.659-0.365l0.118 0.020v-17.231c0.642 0.149 1.4 0.259 2.176 0.306l0.040 0.002zM22.338 3.754l-0.615 0.185-1.723 0.554c-1.553 0.409-3.337 0.644-5.175 0.644-0.388 0-0.773-0.010-1.155-0.031l0.053 0.002h-0.492v13.969h0.369l1.231 0.123c2.669-0.005 5.188-0.641 7.418-1.766l-0.095 0.043 0.246-0.123v-13.6z"></path>
<path d="M1.662 25.969c-0.161-0.15-0.377-0.243-0.615-0.246h-0.431c-0.362 0.13-0.617 0.471-0.617 0.871 0 0.018 0.001 0.037 0.002 0.055l-0-0.003v2.338c0 0.185 0 0.369 0.123 0.492 0 0.123 0.123 0.246 0.185 0.308l0.369 0.185h0.677c0.364-0.15 0.615-0.502 0.615-0.913 0-0.004-0-0.007-0-0.011v0.001-0.246h-0.615v0.369l-0.246 0.246h-0.123c-0.017 0.003-0.037 0.005-0.058 0.005-0.103 0-0.194-0.050-0.249-0.128l-0.001-0.001-0.062-0.369v-2.462c0.048-0.11 0.157-0.186 0.282-0.186 0.009 0 0.018 0 0.026 0.001l-0.001-0c0.111 0.014 0.203 0.085 0.245 0.183l0.001 0.002c0.123 0.062 0.123 0.185 0.123 0.308v0.185h0.615v-0.246c-0.008-0.287-0.123-0.546-0.308-0.739l0 0zM5.292 25.969c-0.188-0.151-0.429-0.243-0.692-0.243-0.127 0-0.248 0.021-0.362 0.060l0.008-0.002c-0.123 0-0.246 0.062-0.308 0.185l-0.246 0.308-0.062 0.431v2.277l0.062 0.431c0 0.123 0.123 0.246 0.246 0.308 0.062 0.123 0.185 0.185 0.308 0.185 0.11 0.043 0.237 0.067 0.369 0.067s0.26-0.025 0.376-0.070l-0.007 0.002c0.123 0 0.246-0.062 0.308-0.185 0.19-0.18 0.308-0.434 0.308-0.715 0-0.008-0-0.016-0-0.024l0 0.001v-2.277l-0.062-0.431c0-0.123-0.123-0.246-0.246-0.308zM5.046 28.923c0 0.002 0 0.004 0 0.006 0 0.117-0.047 0.224-0.123 0.302l0-0c-0.078 0.080-0.187 0.129-0.308 0.129s-0.229-0.049-0.308-0.129l-0-0c-0.076-0.078-0.123-0.184-0.123-0.302 0-0.002 0-0.004 0-0.006v0-2.277c0.025-0.074 0.068-0.136 0.123-0.184l0-0c0.078-0.080 0.187-0.129 0.308-0.129s0.229 0.049 0.308 0.129l0 0c0.076 0.078 0.123 0.184 0.123 0.302 0 0.002-0 0.004-0 0.006v-0 2.277zM10.092 29.969v-4.246h-0.615l-0.738 2.277-0.8-2.277h-0.615v4.246h0.615v-2.585l0.615 1.846h0.308l0.615-1.846v2.585h0.615zM13.538 26.031l-0.369-0.246h-1.354v4.185h0.615v-1.662h0.308c0.185 0 0.369 0 0.554-0.123l0.308-0.308 0.185-0.369c0.033-0.167 0.051-0.358 0.051-0.554s-0.019-0.387-0.054-0.573l0.003 0.019-0.246-0.369zM13.231 27.262l-0.062 0.308-0.185 0.123c-0.046 0.012-0.099 0.020-0.154 0.020s-0.108-0.007-0.158-0.020l0.004 0.001h-0.246v-1.415h0.308l0.246 0.062 0.185 0.185v0.8zM16.369 25.723h-0.492l-0.923 4.246h0.615l0.185-0.923h0.8l0.185 0.923h0.615l-0.985-4.246zM15.815 28.492l0.308-1.538 0.308 1.538h-0.615zM20.308 28.308l-0.985-2.585h-0.554v4.246h0.615v-2.523l0.923 2.523h0.615v-4.246h-0.615v2.585zM24 25.723l-0.492 1.662-0.554-1.662h-0.615l0.862 2.462v1.785h0.615v-1.846l0.8-2.4h-0.615zM0 31.138h0.308v0.862h0.185v-0.862h0.308v-0.123h-0.8v0.123zM2.462 31.015l-0.369 0.985h0.185l0.062-0.246h0.431l0.062 0.246h0.246l-0.431-0.985h-0.185zM2.462 31.631l0.062-0.431 0.185 0.369h-0.308zM4.923 31.631h0.185v0.123l-0.246 0.062c-0.006 0.001-0.013 0.001-0.021 0.001-0.063 0-0.12-0.024-0.164-0.063l0 0-0.123-0.246c0-0.246 0.123-0.369 0.308-0.369 0.018-0.007 0.040-0.011 0.062-0.011 0.102 0 0.185 0.083 0.185 0.185 0 0.004-0 0.007-0 0.011l0-0h0.185c0-0.246-0.185-0.369-0.431-0.369l-0.369 0.123c-0.082 0.088-0.132 0.206-0.132 0.336 0 0.034 0.003 0.066 0.010 0.098l-0.001-0.003c0 0.123 0 0.246 0.123 0.369 0.087 0.077 0.202 0.125 0.328 0.125 0.015 0 0.029-0.001 0.043-0.002l-0.002 0c0.185 0 0.308 0 0.431-0.185v-0.369h-0.431v0.185zM7.385 31.015h-0.246v0.985h0.677v-0.185h-0.431v-0.8zM9.415 31.015h-0.185v0.985h0.185v-0.985zM11.446 31.631l-0.369-0.615h-0.185v0.985h0.185v-0.615l0.369 0.615h0.185v-0.985h-0.185v0.615zM13.292 31.569h0.492v-0.185h-0.492v-0.246h0.554v-0.123h-0.738v0.985h0.738v-0.185h-0.554v-0.246zM17.846 31.385h-0.431v-0.369h-0.185v0.985h0.185v-0.431h0.369v0.431h0.185v-0.985h-0.123v0.369zM19.692 31.569h0.431v-0.185h-0.431v-0.246h0.554v-0.123h-0.738v0.985h0.738v-0.185h-0.554v-0.246zM22.154 31.569c0.185 0 0.246-0.123 0.246-0.308 0.001-0.006 0.001-0.013 0.001-0.021 0-0.063-0.024-0.12-0.063-0.164l0 0c-0.075-0.040-0.164-0.064-0.258-0.064-0.017 0-0.035 0.001-0.052 0.002l0.002-0h-0.431v0.985h0.246v-0.431h0.123l0.062 0.123 0.246 0.308h0.246l-0.123-0.185-0.246-0.246zM21.969 31.385h-0.123v-0.246h0.308c0.068 0 0.123 0.055 0.123 0.123s-0.055 0.123-0.123 0.123v0c-0.028 0.004-0.060 0.007-0.092 0.007s-0.065-0.003-0.096-0.007l0.003 0zM24.062 31.569h0.492v-0.185h-0.492v-0.246h0.554v-0.123h-0.738v0.985h0.738v-0.185h-0.554v-0.246z"></path>
</symbol>
<symbol id="icon-group-3" viewBox="0 0 34 32">
<path d="M5.638 31.314l0.229 0.152-0.457 0.305-0.686 0.152c-0.229 0-0.381 0-0.61-0.152l-0.457-0.229-0.305-0.457c-0.070-0.169-0.111-0.365-0.111-0.571s0.041-0.402 0.115-0.582l-0.004 0.010 0.305-0.457c0.152-0.076 0.305-0.229 0.533-0.229 0.182-0.061 0.392-0.096 0.61-0.096s0.427 0.035 0.624 0.1l-0.014-0.004 0.457 0.229-0.152 0.152h-0.229l-0.076-0.076c-0.17-0.096-0.374-0.153-0.59-0.153-0.007 0-0.013 0-0.020 0h0.001l-0.457 0.076-0.381 0.229c0 0.152-0.152 0.229-0.229 0.381v0.914l0.229 0.305 0.381 0.229h0.686c0.206-0.023 0.388-0.105 0.535-0.23l-0.001 0.001h0.076zM10.438 30.476l-0.076 0.61-0.381 0.457-0.457 0.229c-0.381 0.152-0.838 0.152-1.295 0-0.175-0.054-0.326-0.132-0.461-0.232l0.004 0.003-0.305-0.457c-0.070-0.169-0.111-0.365-0.111-0.571s0.041-0.402 0.115-0.582l-0.004 0.010c0-0.152 0.152-0.305 0.305-0.457l0.457-0.229c0.457-0.152 0.914-0.152 1.295 0l0.457 0.229c0.282 0.239 0.459 0.594 0.459 0.989 0 0.027-0.001 0.054-0.002 0.081l0-0.004zM9.981 30.476v-0.381c-0.091-0.293-0.317-0.519-0.603-0.608l-0.006-0.002c-0.137-0.045-0.294-0.070-0.457-0.070s-0.32 0.026-0.468 0.073l0.011-0.003-0.381 0.229-0.229 0.381v0.838c0.091 0.293 0.317 0.519 0.603 0.608l0.006 0.002h0.914l0.305-0.229c0.152-0.076 0.229-0.229 0.229-0.381l0.076-0.381zM13.714 31.010v0.076l0.076-0.076v-0.152l1.143-1.676h0.533v2.667h-0.381v-2.133l-1.067 1.676-0.152 0.076h-0.152l-1.295-1.752v2.21h-0.381v-2.667h0.457l1.067 1.676 0.076 0.152zM17.676 30.857v0.99h-0.381v-2.667h1.448c0.152 0 0.229 0.152 0.381 0.229l0.152 0.229 0.076 0.381v0.305l-0.305 0.305-0.305 0.152-0.533 0.076h-0.533zM17.676 30.552h0.838l0.229-0.152 0.152-0.152v-0.533c0-0.076 0-0.152-0.152-0.229l-0.533-0.152h-0.533v1.143zM23.314 31.848h-0.457l-0.305-0.762h-1.448l-0.305 0.762h-0.457l1.219-2.667h0.457l1.295 2.667zM21.257 30.857h1.143l-0.457-1.067-0.152-0.305v0.305l-0.533 1.067zM25.143 29.181l1.829 2.057v-2.057h0.381v2.667h-0.305l-1.905-2.133v2.057h-0.381v-2.667h0.305zM30.4 30.781v1.067h-0.381v-1.067l-1.143-1.6h0.457l0.762 1.143c0.027 0.062 0.053 0.139 0.074 0.217l0.003 0.012 0.076-0.152 0.076-0.076 0.762-1.067v-0.076h0.457l-1.067 1.6zM13.486 24.61h0.61c2.763-1.068 5.060-2.826 6.753-5.066l0.028-0.038c1.676-2.286 2.514-4.876 2.438-7.619l-3.048-2.59c0.187 0.85 0.295 1.826 0.295 2.827 0 2.040-0.445 3.975-1.244 5.715l0.035-0.085c-1.297 2.845-3.307 5.173-5.807 6.82l-0.060 0.037z"></path>
<path d="M12.419 24.381v0.076c2.895-1.752 5.029-4.19 6.248-7.010s1.371-5.943 0.533-8.838l-4.343-3.81c1.374 2.346 2.186 5.165 2.186 8.175 0 4.436-1.763 8.46-4.628 11.41l0.004-0.004zM27.352 15.086c-0.836 3.143-2.673 5.772-5.143 7.592l-0.038 0.027-2.514 1.524c2.226-0.578 4.165-1.578 5.819-2.918l-0.029 0.022c1.524-1.295 2.895-2.895 3.657-4.648l-1.752-1.524z"></path>
<path d="M26.667 14.705l-2.59-2.286c0 2.59-0.838 5.029-2.362 7.162s-3.657 3.886-6.248 5.105l1.752-0.076c2.362-0.838 4.495-2.286 6.095-3.962 1.553-1.604 2.697-3.613 3.257-5.854l0.019-0.089zM12.8 3.2l-3.048-2.667c-2.708 0.883-4.984 2.47-6.685 4.546l-0.020 0.025c-1.553 1.923-2.498 4.392-2.514 7.082l-0 0.004c0 2.819 1.067 5.486 3.048 7.619 1.981 2.286 4.8 3.81 7.848 4.571 2.851-2.91 4.611-6.9 4.611-11.3 0-3.704-1.247-7.117-3.344-9.842l0.028 0.038zM33.6 14.248c0-3.276-1.524-6.476-4.19-8.762-2.712-2.329-6.265-3.747-10.15-3.747-1.822 0-3.572 0.312-5.198 0.886l0.109-0.034 18.514 16.152c0.61-1.448 0.914-2.971 0.914-4.495z"></path>
</symbol>
<symbol id="icon-group-4" viewBox="0 0 65 32">
<path d="M9.981 9.981c-1.829 0-3.276 1.295-3.276 2.971 0 1.6 1.524 2.895 3.276 2.895 1.829 0 3.352-1.295 3.352-2.895 0-1.676-1.524-2.971-3.352-2.971zM34.438 9.067c0-2.286-0.99-4.419-2.819-6.095-1.752-1.448-4.19-2.362-6.781-2.362-2.514 0-4.952 0.914-6.781 2.514-1.752 1.524-2.743 3.81-2.743 6.019v12.419s19.048-1.905 19.048-12.419zM0 25.524c0 1.6 0.762 3.048 1.981 4.19 1.238 1.079 2.865 1.741 4.645 1.752h0.003c1.829 0 3.505-0.61 4.724-1.752 1.173-1.003 1.927-2.465 1.981-4.105l0-0.009v-8.686s-13.333 1.295-13.333 8.61zM6.629 27.048c-0.305 0-0.686 0-0.914-0.229-0.305-0.152-0.533-0.381-0.686-0.686-0.076-0.229-0.152-0.61-0.076-0.838 0-0.305 0.229-0.61 0.457-0.762 0.229-0.305 0.61-0.457 0.914-0.457h0.99c0.305 0.152 0.61 0.381 0.762 0.61 0.2 0.246 0.322 0.564 0.322 0.91 0 0.424-0.182 0.805-0.473 1.070l-0.001 0.001-0.61 0.305-0.686 0.152zM20.114 26.286h-1.295v1.295h-0.533v-3.2h2.057v0.61h-1.448v0.762h1.295v0.61zM23.314 26.057c0 0.305 0 0.61-0.152 0.762-0.208 0.453-0.658 0.762-1.181 0.762-0.014 0-0.027-0-0.040-0.001l0.002 0c-0.229 0-0.457 0-0.762-0.152l-0.457-0.533-0.152-0.838v-0.152c0-0.305 0-0.61 0.152-0.838 0.208-0.453 0.658-0.762 1.181-0.762 0.014 0 0.027 0 0.040 0.001l-0.002-0c0.305 0 0.533 0 0.762 0.152 0.152 0.152 0.381 0.381 0.457 0.61 0.152 0.229 0.152 0.533 0.152 0.762v0.229zM22.705 25.905c0-0.381-0.076-0.61-0.229-0.762-0.107-0.183-0.303-0.305-0.528-0.305-0.002 0-0.004 0-0.006 0h0c-0.229 0-0.381 0.076-0.533 0.305l-0.152 0.762v0.152c0 0.305 0 0.533 0.152 0.762 0.152 0.152 0.305 0.229 0.533 0.229s0.457 0 0.533-0.229c0.152-0.152 0.152-0.457 0.229-0.762v-0.152zM25.524 26.667s0-0.152-0.152-0.229l-0.457-0.229c-0.229 0-0.457-0.152-0.533-0.229-0.381-0.152-0.61-0.457-0.61-0.762l0.152-0.457c0.152-0.152 0.229-0.305 0.457-0.381l0.61-0.076 0.61 0.076 0.457 0.381 0.152 0.533h-0.686c0-0.152 0-0.229-0.152-0.381-0.087-0.051-0.192-0.081-0.304-0.081-0.027 0-0.054 0.002-0.080 0.005l0.003-0-0.381 0.076-0.152 0.305c0 0.076 0 0.152 0.152 0.229l0.457 0.229c0.381 0.076 0.686 0.229 0.838 0.381 0.229 0.229 0.305 0.381 0.305 0.686s-0.152 0.457-0.305 0.686c-0.229 0.152-0.533 0.229-0.914 0.229-0.229 0-0.457 0-0.686-0.152l-0.457-0.381-0.152-0.533h0.686c0 0.305 0.229 0.533 0.61 0.533 0.152 0 0.305 0 0.381-0.152l0.152-0.229zM29.105 24.914h-0.99v2.667h-0.686v-2.667h-0.99v-0.61h2.667v0.61zM31.39 26.21h-1.219v0.838h1.524v0.533h-2.286v-3.2h2.286v0.61h-1.524v0.762h1.295v0.533zM33.219 26.362h-0.457v1.219h-0.61v-3.2h1.143c0.457 0 0.762 0.152 0.914 0.305 0.229 0.152 0.305 0.381 0.305 0.762 0 0.152 0 0.381-0.152 0.533 0 0.152-0.229 0.229-0.381 0.305l0.686 1.371h-0.762l-0.61-1.219zM32.762 25.905h0.61l0.381-0.076 0.076-0.381-0.076-0.381-0.457-0.076h-0.533v0.914zM36.876 26.514v1.143h-0.762v-3.276h1.371l0.61 0.152 0.457 0.381 0.152 0.61c0 0.305-0.152 0.533-0.381 0.762-0.229 0.152-0.533 0.229-0.914 0.229h-0.533zM36.876 25.981h0.61c0.152 0 0.305 0 0.381-0.152l0.152-0.305c0-0.152 0-0.305-0.152-0.381-0.096-0.094-0.228-0.152-0.373-0.152-0.003 0-0.005 0-0.008 0h-0.609v0.914zM41.067 26.286h-1.295v0.838h1.524v0.533h-2.133v-3.276h1.981v0.61h-1.524v0.762h1.295v0.533zM44.19 24.99h-0.99v2.667h-0.686v-2.667h-0.99v-0.61h2.667v0.61zM46.476 26.286h-1.219v0.838h1.524v0.533h-2.21v-3.276h2.21v0.61h-1.524v0.762h1.219v0.533zM48.381 26.438h-0.533v1.219h-0.762v-3.276h1.295c0.381 0 0.686 0.152 0.838 0.305 0.229 0.152 0.305 0.381 0.305 0.762l-0.076 0.533-0.457 0.305 0.762 1.371h-0.762l-0.61-1.219zM47.848 25.905h0.533l0.381-0.076 0.152-0.381c0-0.152 0-0.305-0.152-0.381l-0.381-0.076h-0.533v0.914zM51.733 26.819l-0.076-0.305-0.533-0.229c-0.229 0-0.381-0.152-0.533-0.229-0.381-0.152-0.533-0.457-0.533-0.762 0-0.229 0-0.381 0.152-0.457 0-0.152 0.229-0.305 0.381-0.381l0.61-0.076 0.686 0.076 0.381 0.381 0.152 0.533h-0.686c0-0.152 0-0.229-0.152-0.381-0.087-0.051-0.192-0.081-0.304-0.081-0.027 0-0.054 0.002-0.080 0.005l0.003-0-0.381 0.076-0.152 0.305 0.229 0.229 0.457 0.229c0.381 0.076 0.61 0.229 0.762 0.381 0.229 0.229 0.305 0.381 0.305 0.686s-0.076 0.457-0.305 0.686c-0.229 0.152-0.533 0.229-0.838 0.229s-0.533 0-0.762-0.152l-0.457-0.381-0.152-0.533h0.762c0 0.305 0.152 0.533 0.61 0.533 0.152 0 0.229 0 0.381-0.152l0.076-0.229z"></path>
</symbol>
<symbol id="icon-group-5" viewBox="0 0 43 32">
<path d="M3.268 26.349c0.136 0.204 0.204 0.477 0.204 0.681l-0.068 0.477-0.272 0.34c-0.34 0.272-0.749 0.34-1.157 0.34h-1.974v-4.221h1.906c0.409 0 0.817 0.068 1.089 0.272l0.272 0.34 0.136 0.477c0 0.204-0.068 0.477-0.272 0.681l-0.545 0.272c0.272 0 0.477 0.204 0.681 0.34zM0.953 25.736h0.817c0.136 0 0.34 0 0.477-0.136l0.136-0.204 0.068-0.204v-0.204l-0.204-0.204c-0.136-0.136-0.34-0.136-0.545-0.136h-0.749v1.089zM2.315 27.37l0.204-0.204v-0.477l-0.136-0.204c-0.204-0.136-0.409-0.136-0.613-0.136h-0.817v1.157h0.817c0.204 0 0.408 0 0.613-0.136zM7.217 28.187l-1.089-1.634h-0.409v1.634h-0.953v-4.221h1.77c0.477 0 0.885 0.136 1.226 0.34 0.272 0.272 0.409 0.545 0.409 0.885s-0.068 0.681-0.272 0.885c-0.204 0.204-0.545 0.34-0.817 0.409l1.157 1.702h-1.021zM5.719 25.94h0.749c0.545 0 0.817-0.204 0.817-0.613l-0.068-0.272c-0.035-0.079-0.080-0.147-0.136-0.204l0 0-0.613-0.204h-0.749v1.362zM12.255 27.37h-1.838l-0.34 0.817h-0.953l1.702-4.153h1.021l1.702 4.153h-0.953l-0.34-0.817zM11.983 26.689l-0.681-1.77-0.681 1.77h1.362zM18.587 28.187h-0.885l-2.043-2.86v2.86h-0.953v-4.221h0.885l2.043 2.86v-2.86h0.953v4.221zM23.83 27.234c-0.136 0.272-0.477 0.545-0.817 0.681-0.409 0.204-0.817 0.272-1.294 0.272h-1.634v-4.221h1.702c0.477 0 0.885 0.068 1.362 0.272 0.272 0.136 0.613 0.409 0.749 0.681 0.183 0.324 0.291 0.711 0.291 1.123s-0.108 0.8-0.297 1.135l0.006-0.012zM22.808 27.098c0.249-0.267 0.402-0.626 0.402-1.021s-0.153-0.755-0.403-1.022l0.001 0.001c-0.34-0.272-0.681-0.409-1.157-0.34h-0.681v2.723h0.681c0.409 0 0.817-0.136 1.157-0.34zM12.868 0.545s11.847 4.085 11.574 10.008v10.077s-11.847-4.085-11.574-10.077v-10.008zM35.064 18.247c2.247-1.362 4.766-2.247 7.489-2.519v-3.132c-3.096 1.094-5.656 3.061-7.457 5.604l-0.032 0.047z"></path>
<path d="M33.702 19.2c1.838-3.404 5.038-5.992 8.851-7.285v-9.055s-16.885 5.855-16.545 14.298v14.298l1.974-0.749v-1.362c0.409-3.949 2.451-7.557 5.719-10.145z"></path>
<path d="M32.068 24.511c0.136-0.953 0.272-1.974 0.613-2.928-2.142 2.259-3.495 5.285-3.608 8.625l-0.001 0.022 3.268-1.566c-0.272-1.362-0.409-2.723-0.272-4.085zM32.749 24.511c-0.037 0.366-0.058 0.792-0.058 1.222 0 0.917 0.095 1.812 0.277 2.675l-0.015-0.084c4.63-2.519 9.804-6.468 9.6-11.166v-0.409c-3.268 0.34-6.4 1.634-8.783 3.745-0.545 1.362-0.885 2.723-1.021 4.085z"></path>
</symbol>
<symbol id="icon-group-6" viewBox="0 0 67 32">
<path d="M33.707 15.218c-0.269-0.353-0.431-0.801-0.431-1.286 0-0.048 0.002-0.096 0.005-0.143l-0 0.006v-2.062c0-0.569 0.142-1.067 0.427-1.422 0.284-0.284 0.782-0.498 1.422-0.498 0.711 0 1.209 0.142 1.422 0.427 0.356 0.356 0.498 0.782 0.427 1.209v0.498h-1.138v-0.924c0-0.142-0.142-0.213-0.213-0.284-0.117-0.089-0.266-0.142-0.427-0.142v0c-0.161 0-0.309 0.053-0.428 0.144l0.002-0.001c-0.142 0-0.213 0.142-0.213 0.284v2.987l0.071 0.711 0.284 0.142 0.284 0.071c0.142 0 0.284 0 0.427-0.142l0.142-0.284v-0.996h1.209v0.498c0 0.427-0.071 0.853-0.356 1.28-0.284 0.284-0.711 0.427-1.422 0.427s-1.209-0.142-1.422-0.498zM38.613 15.218c-0.356-0.284-0.498-0.711-0.498-1.422v-2.133c0-0.569 0.142-1.067 0.498-1.422 0.284-0.213 0.711-0.427 1.422-0.427s1.209 0.213 1.493 0.498c0.284 0.284 0.427 0.711 0.427 1.422v2.133c0 0.569-0.142 1.067-0.427 1.422-0.284 0.284-0.782 0.427-1.422 0.427-0.711 0-1.209-0.142-1.493-0.498zM40.604 14.72l0.142-0.64v-2.631c0-0.213 0-0.427-0.142-0.64l-0.213-0.142c-0.053-0.014-0.115-0.023-0.178-0.023s-0.124 0.008-0.183 0.024l0.005-0.001c-0.043-0.009-0.092-0.014-0.142-0.014s-0.099 0.005-0.147 0.015l0.005-0.001-0.213 0.142c-0.142 0.213-0.213 0.427-0.142 0.64v2.631c0 0.213 0 0.427 0.142 0.711l0.213 0.142c0.095 0.039 0.205 0.062 0.32 0.062s0.225-0.023 0.326-0.064l-0.006 0.002 0.213-0.213zM43.378 9.956h1.28l0.924 3.911 0.996-3.982h1.209l0.071 5.76h-0.853l-0.142-3.982-0.924 3.982h-0.711l-0.924-3.982-0.213 3.982h-0.924l0.142-5.689zM49.28 9.956h1.991c1.138 0 1.707 0.498 1.707 1.564s-0.64 1.564-1.778 1.564h-0.711v2.56h-1.209v-5.689zM50.987 12.373h0.356l0.284-0.213 0.213-0.64-0.071-0.498-0.071-0.142-0.213-0.142c-0.142-0.071-0.356-0.142-0.498-0.071h-0.498v1.707h0.498zM54.756 9.956h1.209l1.422 5.689h-1.209l-0.213-1.351h-1.209l-0.284 1.351h-1.138l1.422-5.689zM55.822 13.653l-0.498-2.418-0.427 2.418h0.924zM58.382 9.956h0.853l1.636 3.2v-3.2h0.996v5.689h-0.782l-1.636-3.413v3.413h-1.138v-5.689zM64.213 13.511l-1.351-3.556h1.138l0.853 2.204 0.711-2.276h1.138l-1.351 3.556v2.204h-1.138v-2.133zM35.556 18.133v0.356h-0.924v2.276h-0.498v-2.276h-0.996v-0.356h2.418zM38.684 20.764h-0.498l-0.284-0.711h-1.351l-0.284 0.711h-0.427l1.209-2.631h0.427l1.209 2.631zM36.693 19.911h1.138l-0.498-1.067-0.071-0.284v0.142l-0.071 0.142-0.498 1.067zM40.747 20.551h0.213c0.153-0.002 0.3-0.028 0.437-0.074l-0.010 0.003 0.142-0.071v-0.64h-0.569v-0.213h0.924v0.996c-0.223 0.146-0.488 0.248-0.773 0.284l-0.009 0.001h-0.356c-0.213 0-0.427 0-0.64-0.142-0.189-0.042-0.356-0.116-0.503-0.216l0.005 0.003-0.284-0.427-0.142-0.569c0-0.213 0-0.356 0.142-0.569 0-0.142 0.142-0.284 0.284-0.427 0.142-0.071 0.284-0.213 0.498-0.213 0.231-0.097 0.499-0.153 0.781-0.153 0.076 0 0.15 0.004 0.224 0.012l-0.009-0.001c0.189 0.047 0.355 0.12 0.504 0.217l-0.006-0.004 0.213 0.142-0.071 0.142h-0.284l-0.213-0.142c-0.145-0.072-0.313-0.122-0.491-0.142l-0.007-0.001c-0.184 0.018-0.353 0.069-0.506 0.146l0.008-0.004-0.356 0.142-0.213 0.356v0.924c0 0.142 0.142 0.284 0.284 0.356 0.19 0.177 0.446 0.286 0.727 0.286 0.020 0 0.039-0.001 0.058-0.002l-0.003 0zM44.587 20.48h1.351v0.284h-1.707v-2.631h0.356v2.347zM47.289 20.764h-0.356v-2.631h0.427v2.631zM48.853 18.133v0.071l1.849 1.991v-2.062h0.356v2.631h-0.356l-1.778-1.991v2.062h-0.356v-2.631h0.213zM54.044 18.133v0.284h-1.422v0.924h1.138v0.284h-1.138v0.853h1.422v0.284h-1.849v-2.631h1.849zM10.809 1.92l18.347 4.48v15.644l-18.347-4.48v-15.644zM9.6 0.498v17.991l20.693 4.978v-17.778l-20.622-5.191z"></path>
<path d="M20.693 31.787l-20.693-5.049v-17.92l20.693 5.12v17.778z"></path>
<path d="M9.956 1.707l18.062 4.409-7.68 6.684-18.062-4.48 7.68-6.613zM9.6 0.569l-9.6 8.249 20.693 5.12 9.6-8.32-20.622-5.049zM21.831 30.791l8.533-7.324-8.533-2.062v9.387z"></path>
</symbol>
<symbol id="icon-group" viewBox="0 0 28 32">
<path d="M4.085 0l4.766 4.494h-8.851v21.923h23.149v-8.374l4.766 4.494v-22.536h-23.83zM22.945 17.498l-13.549-12.732h13.549v12.8zM18.723 23.217h-15.047v-14.706h1.021v13.685h14.026v1.021zM7.217 29.277h0.477l-0.817 1.498v0.953h-0.409v-0.953l-0.817-1.498h0.477l0.545 1.226 0.545-1.157zM7.898 31.796l0.204-0.613h0.953l0.204 0.613h0.409l-0.817-2.519h-0.409l-0.953 2.519h0.409zM8.579 29.889l0.34 0.953h-0.681l0.34-0.953zM10.826 30.774l-0.136 0.34c0 0.204 0.068 0.34 0.272 0.477 0.136 0.136 0.272 0.204 0.545 0.204 0.204 0 0.409 0 0.613-0.204l0.136 0.204h0.477l-0.34-0.477c0.136-0.136 0.204-0.409 0.204-0.681h-0.34c0 0.136 0 0.272-0.136 0.409l-0.477-0.545 0.204-0.136 0.204-0.204c0.056-0.084 0.089-0.187 0.089-0.298 0-0.149-0.060-0.284-0.157-0.383l0 0c-0.104-0.085-0.239-0.137-0.386-0.137-0.008 0-0.016 0-0.024 0l0.001-0c-0.019-0.002-0.042-0.003-0.064-0.003-0.156 0-0.299 0.052-0.414 0.14l0.002-0.001c-0.136 0.136-0.204 0.272-0.204 0.477l0.068 0.204 0.204 0.34c-0.131 0.075-0.244 0.166-0.339 0.271l-0.001 0.001zM11.915 31.319l-0.545-0.545h-0.068c-0.136 0.068-0.204 0.204-0.204 0.34v0c0 0.111 0.053 0.21 0.136 0.272l0.272 0.068c0.154 0 0.296-0.051 0.409-0.136zM11.438 30.298l-0.136-0.409v-0.204h0.477l0.068 0.204-0.068 0.204-0.272 0.204zM15.387 31.591c-0.136 0.136-0.34 0.204-0.681 0.204l-0.477-0.136c-0.136-0.068-0.272-0.204-0.34-0.409-0.136-0.136-0.136-0.34-0.136-0.545v-0.204l0 0.004c-0.002-0.028-0.003-0.057-0.003-0.086 0-0.218 0.051-0.424 0.139-0.599l0.34-0.34c0.136-0.136 0.34-0.136 0.477-0.136l0.681 0.136c0.204 0.204 0.272 0.409 0.272 0.681h-0.409l-0.136-0.409-0.34-0.068c-0.204 0-0.34 0-0.409 0.136-0.136 0.136-0.204 0.34-0.204 0.613v0.204l0.136 0.613 0.001 0.002c0.086 0.123 0.229 0.203 0.39 0.203 0.006 0 0.012-0 0.017-0 0.204 0 0.34 0 0.409-0.136 0.136-0.068 0.136-0.136 0.136-0.34h0.409c0 0.272-0.068 0.477-0.272 0.613zM17.906 31.251l0.068-0.681v-0.068c0-0.272 0-0.477-0.136-0.681-0.166-0.285-0.469-0.473-0.817-0.477h-0c-0.204 0-0.409 0-0.545 0.136-0.136 0.068-0.272 0.204-0.34 0.409-0.136 0.136-0.136 0.34-0.136 0.613v0.136c0 0.204 0 0.409 0.136 0.613 0 0.204 0.204 0.34 0.34 0.409l0.545 0.136c0.204 0 0.34 0 0.477-0.136 0.204-0.068 0.272-0.272 0.409-0.409zM17.43 29.889l0.136 0.613v0.136c0 0.272 0 0.477-0.136 0.613l-0.409 0.204c-0.024 0.004-0.052 0.007-0.081 0.007-0.164 0-0.309-0.083-0.395-0.209l-0.001-0.002-0.136-0.681v-0.068c0-0.272 0-0.477 0.136-0.681l0.477-0.136c0.136 0 0.272 0 0.409 0.204z"></path>
</symbol>
<symbol id="icon-instagram" viewBox="0 0 32 32">
<path d="M32 9.44c0-1.6-0.32-2.88-0.8-3.84-0.32-1.12-0.96-2.080-1.76-2.88-0.79-0.823-1.751-1.475-2.826-1.901l-0.054-0.019c-3.142-0.321-6.79-0.504-10.48-0.504s-7.338 0.183-10.934 0.541l0.454-0.037c-1.12 0.48-2.080 1.12-2.88 1.92-0.746 0.756-1.342 1.661-1.741 2.666l-0.019 0.054c-0.48 1.12-0.96 2.24-0.96 4.16-0.035 1.038-0.056 2.258-0.056 3.482 0 4.808 0.311 9.543 0.914 14.186l-0.058-0.548c0.418 1.059 1.014 1.964 1.761 2.721l-0.001-0.001c0.79 0.823 1.751 1.475 2.826 1.901l0.054 0.019c0.96 0.32 2.080 0.64 3.84 0.64 1.251 0.048 2.721 0.075 4.196 0.075 4.553 0 9.045-0.26 13.463-0.765l-0.54 0.050c2.227-0.846 3.954-2.573 4.781-4.744l0.019-0.056 0.64-3.84c0.173-2.39 0.272-5.179 0.272-7.99 0-1.804-0.041-3.599-0.121-5.384l0.009 0.254zM29.12 22.4c0 1.6-0.32 2.4-0.64 3.040-0.48 1.44-1.6 2.56-3.040 3.040-0.48 0.16-1.28 0.48-2.88 0.48-1.382 0.061-3.002 0.095-4.631 0.095-4.004 0-7.959-0.209-11.856-0.616l0.487 0.041c-0.688-0.254-1.276-0.635-1.76-1.12l-0-0c-0.48-0.64-0.96-1.28-1.12-1.92-0.32-0.48-0.64-1.44-0.64-3.040-0.032-1.008-0.051-2.194-0.051-3.384 0-4.389 0.251-8.718 0.739-12.976l-0.049 0.52c0.16-0.64 0.64-1.28 1.12-1.76 0.48-0.64 1.12-0.96 1.76-1.28 0.64-0.16 1.6-0.48 3.2-0.48 1.312-0.055 2.851-0.086 4.397-0.086 3.974 0 7.9 0.205 11.767 0.606l-0.484-0.041c0.8 0.32 1.44 0.64 1.92 1.28 0.48 0.48 0.96 1.12 1.12 1.76 0.32 0.64 0.48 1.44 0.64 3.040 0.116 1.913 0.182 4.149 0.182 6.4s-0.066 4.487-0.196 6.706l0.014-0.306z"></path>
<path d="M16 7.84c-0.342-0.051-0.738-0.080-1.14-0.080-4.507 0-8.16 3.653-8.16 8.16s3.653 8.16 8.16 8.16c0.402 0 0.797-0.029 1.184-0.085l-0.044 0.005c3.763-0.776 6.552-4.062 6.552-8s-2.789-7.224-6.499-7.991l-0.053-0.009zM16 21.28c-2.916 0-5.28-2.364-5.28-5.28s2.364-5.28 5.28-5.28v0c2.916 0 5.28 2.364 5.28 5.28s-2.364 5.28-5.28 5.28v0zM26.56 7.52c0 1.060-0.86 1.92-1.92 1.92s-1.92-0.86-1.92-1.92v0c0-1.060 0.86-1.92 1.92-1.92s1.92 0.86 1.92 1.92v0z"></path>
</symbol>
<symbol id="icon-linkedin" viewBox="0 0 32 32">
<path d="M32 32v-11.68c0-5.76-1.28-10.24-8-10.24-3.2 0-5.28 1.76-6.24 3.52v-3.040h-6.56v21.44h6.56v-10.56c0-2.88 0.48-5.44 4-5.44 3.36 0 3.52 3.2 3.52 5.6v10.4h6.72zM0.48 10.56h6.72v21.44h-6.72v-21.44zM3.84 0c-2.080 0-3.84 1.6-3.84 3.84 0 2.080 1.6 3.84 3.84 3.84 2.121 0 3.84-1.719 3.84-3.84s-1.719-3.84-3.84-3.84v0z"></path>
</symbol>
<symbol id="icon-twitter" viewBox="0 0 32 32">
<path d="M32 6.080c-1.12 0.48-2.4 0.8-3.84 0.96 1.347-0.785 2.365-2.010 2.867-3.475l0.013-0.045c-1.28 0.8-2.56 1.28-4.16 1.6-1.201-1.288-2.908-2.091-4.803-2.091-3.623 0-6.56 2.937-6.56 6.56 0 0.515 0.059 1.015 0.171 1.496l-0.009-0.044c-5.44-0.32-10.24-2.88-13.44-6.88-0.562 0.947-0.894 2.088-0.894 3.307 0 2.289 1.173 4.305 2.95 5.478l0.025 0.015c-1.117-0.011-2.163-0.306-3.072-0.817l0.032 0.017c0 3.2 2.24 5.92 5.28 6.4-0.553 0.173-1.188 0.272-1.847 0.272-0.422 0-0.835-0.041-1.234-0.119l0.040 0.007c0.96 2.72 3.2 4.64 6.24 4.64-2.212 1.759-5.047 2.822-8.129 2.822-0.575 0-1.141-0.037-1.697-0.109l0.066 0.007c2.88 1.92 6.4 2.72 10.080 2.72 0.003 0 0.007 0 0.011 0 10.25 0 18.56-8.31 18.56-18.56 0-0.225-0.004-0.449-0.012-0.672l0.001 0.032c1.44-0.96 2.4-2.080 3.36-3.36z"></path>
</symbol>
<symbol id="icon-smartphone" viewBox="0 0 20 32">
<path d="M17 0h-14c-1.6 0-3 1.4-3 3v26c0 1.6 1.4 3 3 3h14c1.6 0 3-1.4 3-3v-26c0-1.6-1.4-3-3-3zM3 2h14c0.6 0 1 0.4 1 1v21h-16v-21c0-0.6 0.4-1 1-1zM17 30h-14c-0.552 0-1-0.448-1-1v0-3h16v3c0 0.6-0.4 1-1 1z"></path>
<path d="M4.8 27.4v1.4c-0.4 0.4-1.2 0.4-1.6 0-0.248-0.139-0.413-0.4-0.413-0.7s0.165-0.561 0.409-0.698l0.004-0.002c0.4-0.2 1.2-0.2 1.6 0z"></path>
</symbol>
<symbol id="icon-hover" viewBox="0 0 336 32">
<path fill="#2196f3" style="fill: var(--color1, #2196f3)" d="M16 0h304c8.837 0 16 7.163 16 16s-7.163 16-16 16h-304c-8.837 0-16-7.163-16-16s7.163-16 16-16z"></path>
</symbol>
<symbol id="icon-person1" viewBox="0 0 32 32">
<path d="M16 16c2.946 0 5.333-2.388 5.333-5.333s-2.388-5.333-5.333-5.333v0c-2.946 0-5.333 2.388-5.333 5.333s2.388 5.333 5.333 5.333v0zM16 18.667c-3.556 0-10.667 1.778-10.667 5.333v1.422c0 0.711 0.533 1.244 1.422 1.244h18.489c0.889 0 1.422-0.533 1.422-1.422v-1.244c0-3.556-7.111-5.333-10.667-5.333z"></path>
</symbol>
<symbol id="icon-phone-black" viewBox="0 0 32 32">
<path d="M24.889 19.733l-3.2-0.356c-0.889 0-1.778 0.178-2.133 0.711l-2.489 2.489c-3.556-1.778-6.578-4.978-8.356-8.533l2.311-2.489c0.533-0.533 0.889-1.244 0.711-1.956l-0.356-3.378c0-1.244-1.244-2.133-2.489-2.133h-2.311c-1.422 0-2.667 1.067-2.489 2.667 0.711 10.844 9.422 19.556 20.444 20.444 1.422 0 2.667-1.244 2.667-2.667v-2.133c0-1.422-1.067-2.489-2.311-2.667z"></path>
</symbol>
<symbol id="icon-email" viewBox="0 0 32 32">
<path d="M26.667 5.333h-21.333c-1.422 0-2.667 1.244-2.667 2.667v16c0 1.422 1.244 2.667 2.667 2.667h21.333c1.422 0 2.667-1.244 2.667-2.667v-16c0-1.422-1.244-2.667-2.667-2.667zM26.133 11.022l-9.422 5.867c-0.356 0.356-1.067 0.356-1.422 0l-9.422-5.867c-0.281-0.199-0.463-0.523-0.463-0.889 0-0.599 0.486-1.085 1.085-1.085 0.233 0 0.449 0.073 0.626 0.198l-0.003-0.002 8.889 5.333 8.889-5.333c0.173-0.123 0.389-0.196 0.622-0.196 0.599 0 1.085 0.486 1.085 1.085 0 0.366-0.181 0.69-0.459 0.887l-0.003 0.002z"></path>
</symbol>
<symbol id="icon-icon-send" viewBox="0 0 32 32">
<path fill="#fff" style="fill: var(--color1, #fff)" d="M32 0l-32 18 10.267 3.733 15.733-14.667-12 16v8.933l5.733-6.667 7.333 2.667 4.933-28z"></path>
</symbol>
<symbol id="icon-icon-check" viewBox="0 0 34 32">
<path fill="#2196f3" style="fill: var(--color1, #2196f3)" d="M4.267 0h25.6c2.356 0 4.267 1.91 4.267 4.267v23.467c0 2.356-1.91 4.267-4.267 4.267h-25.6c-2.356 0-4.267-1.91-4.267-4.267v-23.467c0-2.356 1.91-4.267 4.267-4.267z"></path>
<path fill="#fff" style="fill: var(--color2, #fff); stroke: var(--color2, #fff)" stroke="#fff" stroke-linejoin="miter" stroke-linecap="butt" stroke-miterlimit="4" stroke-width="0.4267" d="M8.533 16.64l-0.213-0.213-2.133 1.92v0.213l7.467 7.253h0.213l16.213-15.36v-0.213l-2.133-1.92-14.080 13.44-5.333-5.12z"></path>
</symbol>
<symbol id="icon-Vector" viewBox="0 0 34 32">
<path d="M30.293 3.627v24.747h-26.453v-24.747h26.453zM30.293 0h-26.453c-2.133 0-3.84 1.707-3.84 3.627v24.747c0 2.133 1.707 3.627 3.84 3.627h26.453c2.133 0 3.84-1.707 3.84-3.627v-24.747c0-2.133-1.707-3.627-3.84-3.627z"></path>
</symbol>
<symbol id="icon-close" viewBox="0 0 32 32">
<path d="M26.667 7.289l-1.956-1.956-7.822 7.822-7.822-7.822-1.956 1.956 7.822 7.822-7.822 7.822 1.956 1.956 7.822-7.822 7.822 7.822 1.956-1.956-7.822-7.822 7.822-7.822z"></path>
</symbol>
</defs>
</svg>
